<?xml version="1.0" encoding="iso-8859-1"?>
<!-- Generator: Adobe Illustrator 29.5.1, SVG Export Plug-In . SVG Version: 9.03 Build 0)  -->
<svg version="1.1" id="objects" xmlns="http://www.w3.org/2000/svg" xmlns:xlink="http://www.w3.org/1999/xlink" x="0px" y="0px"
	 viewBox="0 0 145.51 66.294" style="enable-background:new 0 0 145.51 66.294;" xml:space="preserve">
<path style="fill:#B02025;" d="M21.7,21.074c0,0,0.06,0,0.09,0l0,0c0,0,7.42,0,13.12,0s15.06-15.76,23.51-19.68
	c3.29-1.52,29.95-2.22,47.65-0.36c17.15,1.79,38.73,29.32,38.85,37.38c0.12,8.05-3.37,17.34-18.55,17.34H21.79c0,0-0.06,0-0.09,0
	c-9.58,0-17.34-7.77-17.34-17.34S12.13,21.074,21.7,21.074z"/>
<path style="fill:#0A2736;" d="M130.28,23.844H94.21V4.054c0,0,14.64,0.05,21.65,4.44C123.88,13.524,130.28,23.844,130.28,23.844z"
	/>
<path style="fill:#0A2736;" d="M89.83,3.844v20.01H43.65c0,0,10.67-15.22,15.35-17.82c4.69-2.6,30.83-2.18,30.83-2.18V3.844z"/>
<path style="fill:#E5E5E5;" d="M3.07,52.634c0,2.07,1.97,3.74,4.4,3.74H109.4c2.43,0,4.41-1.68,4.41-3.74l0,0
	c0-2.06-1.97-3.74-4.41-3.74H7.47C5.04,48.894,3.07,50.574,3.07,52.634C3.07,52.634,3.07,52.634,3.07,52.634z"/>
<g>
	<g>
		<path style="fill:#232323;" d="M103.77,54.204c0,6.68,5.42,12.1,12.1,12.1s12.1-5.42,12.1-12.1s-5.42-12.1-12.1-12.1
			S103.77,47.524,103.77,54.204z"/>
		<path style="fill:#414042;" d="M109.66,54.204c0,3.42,2.78,6.2,6.2,6.2s6.2-2.78,6.2-6.2s-2.77-6.2-6.2-6.2
			S109.66,50.784,109.66,54.204z"/>
		<path style="fill:#FFFFFF;" d="M111.33,54.204c0,2.5,2.03,4.53,4.53,4.53s4.53-2.03,4.53-4.53s-2.03-4.53-4.53-4.53
			S111.33,51.704,111.33,54.204z"/>
	</g>
	<g>
		<path style="fill:#232323;" d="M19.45,54.204c0,6.68,5.42,12.1,12.1,12.1s12.1-5.42,12.1-12.1s-5.41-12.1-12.1-12.1
			S19.45,47.524,19.45,54.204z"/>
		<path style="fill:#414042;" d="M25.34,54.204c0,3.42,2.78,6.2,6.2,6.2s6.2-2.78,6.2-6.2s-2.78-6.2-6.2-6.2
			S25.34,50.784,25.34,54.204z"/>
		<path style="fill:#FFFFFF;" d="M27.01,54.204c0,2.5,2.03,4.53,4.53,4.53s4.53-2.03,4.53-4.53s-2.03-4.53-4.53-4.53
			S27.01,51.704,27.01,54.204z"/>
	</g>
</g>
<path style="opacity:0.1;fill:#FFFFFF;enable-background:new    ;" d="M21.7,21.074c0,0,0.06,0,0.09,0l0,0c0,0,7.42,0,13.12,0
	c1.21,0,8.68,2.77,8.68,2.77h93.68c1.27,1.68,2.6,3.45,3.59,5.01H7.23C10.33,24.164,15.66,21.074,21.7,21.074z"/>
<g>
	<path style="fill:#232323;" d="M141.03,30.584c0.84,1.09,2.4,1.3,3.49,0.46l0,0c1.09-0.84,1.3-2.4,0.46-3.49l-10.24-13.37
		c-0.84-1.09-2.4-1.3-3.49-0.46l0,0c-1.09,0.84-1.3,2.4-0.46,3.49L141.03,30.584z"/>
	<path style="fill:#232323;" d="M142.36,25.514c0.53,0.69,1.53,0.83,2.22,0.3l0,0c0.7-0.53,0.83-1.53,0.3-2.22l-6.5-8.48
		c-0.53-0.69-1.52-0.82-2.22-0.3l0,0c-0.69,0.53-0.82,1.53-0.29,2.22L142.36,25.514L142.36,25.514z"/>
</g>
<g>
	<defs>
		<path id="SVGID_1_" d="M21.7,21.073c0,0,0.06,0,0.09,0c0,0,7.42,0,13.12,0s15.06-15.76,23.51-19.68
			c3.29-1.52,29.95-2.22,47.65-0.36c17.15,1.79,38.73,29.32,38.85,37.38c0.12,8.05-3.37,17.34-18.55,17.34H21.79c0,0-0.06,0-0.09,0
			c-9.58,0-17.34-7.77-17.34-17.34S12.13,21.073,21.7,21.073z"/>
	</defs>
	<clipPath id="SVGID_00000111160055144168814430000006594258593401502904_">
		<use xlink:href="#SVGID_1_"  style="overflow:visible;"/>
	</clipPath>
	<g style="clip-path:url(#SVGID_00000111160055144168814430000006594258593401502904_);">
		<path style="fill:#DAC263;" d="M0,31.564c0,3.31,2.68,5.99,5.99,5.99s5.99-2.68,5.99-5.99s-2.68-5.99-5.99-5.99S0,28.254,0,31.564
			z"/>
	</g>
</g>
<g style="opacity:0.15;">
	<g>
		<defs>
			<path id="SVGID_00000067949705645253629900000003587105058086285994_" d="M130.28,23.844H94.21V4.054c0,0,14.64,0.05,21.65,4.44
				C123.88,13.524,130.28,23.844,130.28,23.844z"/>
		</defs>
		<clipPath id="SVGID_00000150065089335576907620000013529675303513973176_">
			<use xlink:href="#SVGID_00000067949705645253629900000003587105058086285994_"  style="overflow:visible;"/>
		</clipPath>
		<g style="clip-path:url(#SVGID_00000150065089335576907620000013529675303513973176_);">
			
				<rect x="102.821" y="-36.308" transform="matrix(0.915 -0.4034 0.4034 0.915 4.0176 43.9578)" style="fill:#FFFFFF;" width="7.06" height="97.5"/>
		</g>
	</g>
</g>
<g style="opacity:0.15;">
	<g>
		<defs>
			<path id="SVGID_00000031890613042823465620000004807030578951575195_" d="M89.83,3.844v20.01H43.65c0,0,10.67-15.22,15.35-17.82
				c4.69-2.6,30.83-2.18,30.83-2.18V3.844z"/>
		</defs>
		<clipPath id="SVGID_00000110444714684544627520000013515772255360295099_">
			<use xlink:href="#SVGID_00000031890613042823465620000004807030578951575195_"  style="overflow:visible;"/>
		</clipPath>
		<g style="clip-path:url(#SVGID_00000110444714684544627520000013515772255360295099_);">
			
				<rect x="74.054" y="-32.596" transform="matrix(0.9148 -0.4039 0.4039 0.9148 0.0847 32.7094)" style="fill:#FFFFFF;" width="7.06" height="97.5"/>
			
				<rect x="58.044" y="-29.622" transform="matrix(0.915 -0.4034 0.4034 0.915 -2.3545 27.0787)" style="fill:#FFFFFF;" width="10.11" height="97.5"/>
		</g>
	</g>
</g>
</svg>
