<?xml version="1.0" encoding="iso-8859-1"?>
<!-- Generator: Adobe Illustrator 29.5.1, SVG Export Plug-In . SVG Version: 9.03 Build 0)  -->
<svg version="1.1" id="objects" xmlns="http://www.w3.org/2000/svg" xmlns:xlink="http://www.w3.org/1999/xlink" x="0px" y="0px"
	 viewBox="0 0 158.3 71.81" style="enable-background:new 0 0 158.3 71.81;" xml:space="preserve">
<path style="fill:#63B5CF;" d="M11.84,57.86h134.77c8.78,0,12.09-31.36,2.38-31.36s-29.48-0.09-29.48-0.09s-5.75-9.27-12.25-15.79
	c-4.83-4.85-9.92-5.18-12.4-5.18H53.07c-5.65,0-10.41,2.88-14.25,5.51c-14.11,9.68-42.56,46.9-26.97,46.9L11.84,57.86z"/>
<g>
	<path style="fill:#E0D5C4;" d="M20.45,56.45c0,1.99-1.62,3.61-3.61,3.61H3.61C1.62,60.06,0,58.45,0,56.45l0,0
		c0-1.99,1.62-3.61,3.61-3.61h13.23C18.83,52.84,20.45,54.46,20.45,56.45L20.45,56.45z"/>
	<path style="fill:#E0D5C4;" d="M155.95,56.45c0,1.99-1.62,3.61-3.61,3.61h-13.23c-1.99,0-3.61-1.61-3.61-3.61l0,0
		c0-1.99,1.61-3.61,3.61-3.61h13.23C154.33,52.84,155.95,54.46,155.95,56.45L155.95,56.45z"/>
</g>
<path style="fill:#0A2736;" d="M30.68,26.5h30.85V10.82c0,0-12.2-1.07-16.92,1.76S30.68,26.5,30.68,26.5z"/>
<path style="fill:#0A2736;" d="M87.26,10.62V26.5h25.93c0,0-5.73-9.33-9.26-12.28c-3.53-2.95-5.67-3.6-9.63-3.6H87.26z"/>
<g>
	<path style="fill:#232323;" d="M38.66,58.56c0,7.32-5.93,13.25-13.25,13.25s-13.25-5.93-13.25-13.25s5.93-13.25,13.25-13.25
		S38.66,51.24,38.66,58.56z"/>
	<path style="fill:#414042;" d="M32.2,58.56c0,3.75-3.04,6.79-6.79,6.79s-6.79-3.04-6.79-6.79s3.04-6.79,6.79-6.79
		S32.2,54.81,32.2,58.56z"/>
	<path style="fill:#FFFFFF;" d="M30.37,58.56c0,2.74-2.22,4.96-4.96,4.96s-4.96-2.22-4.96-4.96s2.22-4.96,4.96-4.96
		S30.37,55.82,30.37,58.56z"/>
</g>
<rect x="38.49" y="56.45" style="fill:#100F0F;" width="80.89" height="3.51"/>
<path style="fill:#DAC263;" d="M158.3,43.17c0,2.88-2.34,5.22-5.22,5.22s-5.22-2.34-5.22-5.22s2.34-5.22,5.22-5.22
	S158.3,40.29,158.3,43.17z"/>
<rect x="65.42" y="26.5" style="opacity:0.1;fill:#232323;enable-background:new    ;" width="0.72" height="29.95"/>
<g>
	<path style="fill:#232323;" d="M143.33,58.2c0,7.32-5.93,13.25-13.25,13.25s-13.25-5.93-13.25-13.25s5.93-13.24,13.25-13.24
		C137.4,44.96,143.33,50.89,143.33,58.2z"/>
	<path style="fill:#414042;" d="M136.88,58.2c0,3.75-3.04,6.79-6.79,6.79s-6.79-3.04-6.79-6.79s3.04-6.79,6.79-6.79
		S136.88,54.45,136.88,58.2z"/>
	<path style="fill:#FFFFFF;" d="M135.05,58.2c0,2.75-2.22,4.96-4.96,4.96s-4.96-2.22-4.96-4.96s2.22-4.96,4.96-4.96
		C132.83,53.24,135.05,55.46,135.05,58.2z"/>
</g>
<g style="opacity:0.1;">
	<g>
		<defs>
			<path id="SVGID_1_" d="M30.68,26.5h30.85V10.82c0,0-12.2-1.07-16.92,1.76S30.68,26.5,30.68,26.5z"/>
		</defs>
		<clipPath id="SVGID_00000136404142645564279950000003634441839588602278_">
			<use xlink:href="#SVGID_1_"  style="overflow:visible;"/>
		</clipPath>
		<g style="clip-path:url(#SVGID_00000136404142645564279950000003634441839588602278_);">
			<polygon style="fill:#FFFFFF;" points="39.67,54.23 34.52,51.96 69.27,-19.1 74.41,-16.83 			"/>
		</g>
	</g>
</g>
<path style="fill:none;" d="M87.26,10.62V26.5h25.93c0,0-5.73-9.33-9.26-12.28c-3.53-2.95-5.67-3.6-9.63-3.6H87.26z"/>
<rect x="65.08" y="10.62" style="fill:#0A2736;" width="19.12" height="15.88"/>
<g style="opacity:0.1;">
	<g>
		<defs>
			<path id="SVGID_00000070837068560766893540000001388672185301257645_" d="M87.26,10.62V26.5h25.93c0,0-5.73-9.33-9.26-12.28
				s-5.67-3.6-9.63-3.6H87.26z"/>
		</defs>
		<clipPath id="SVGID_00000106847893797328913580000000797426190198938787_">
			<use xlink:href="#SVGID_00000070837068560766893540000001388672185301257645_"  style="overflow:visible;"/>
		</clipPath>
		<g style="clip-path:url(#SVGID_00000106847893797328913580000000797426190198938787_);">
			
				<rect x="51.779" y="18.867" transform="matrix(0.4034 -0.915 0.915 0.4034 33.1105 96.5751)" style="fill:#FFFFFF;" width="77.67" height="8.06"/>
		</g>
	</g>
</g>
<g style="opacity:0.1;">
	<g>
		<defs>
			<rect id="SVGID_00000078016041579060857910000011419191045082647700_" x="65.08" y="10.62" width="19.12" height="15.88"/>
		</defs>
		<clipPath id="SVGID_00000050646321452366466340000018286089636823171472_">
			<use xlink:href="#SVGID_00000078016041579060857910000011419191045082647700_"  style="overflow:visible;"/>
		</clipPath>
		<g style="clip-path:url(#SVGID_00000050646321452366466340000018286089636823171472_);">
			
				<rect x="37.029" y="17.721" transform="matrix(0.4037 -0.9149 0.9149 0.4037 26.4541 81.6497)" style="fill:#FFFFFF;" width="77.67" height="5.62"/>
		</g>
	</g>
</g>
<rect x="56.06" y="3.78" style="fill:#232323;" width="6.61" height="1.66"/>
<rect x="86.02" y="3.78" style="fill:#232323;" width="6.61" height="1.66"/>
<path style="fill:#B02025;" d="M128.02,1.89c0,1.04-0.85,1.89-1.89,1.89H32.26c-1.04,0-1.89-0.85-1.89-1.89l0,0
	c0-1.04,0.84-1.89,1.89-1.89h93.87C127.17,0,128.02,0.85,128.02,1.89L128.02,1.89z"/>
<path style="opacity:0.1;fill:#FFFFFF;enable-background:new    ;" d="M154.68,34.94c-0.59-4.8-2.38-8.44-5.69-8.44
	c-9.72,0-29.48-0.09-29.48-0.09L22.93,26.5c-2.4,2.85-4.52,5.49-6.62,8.44H154.68z"/>
<polygon style="fill:#232323;" points="154.73,35.37 16,35.37 17.71,33.02 154.36,33.02 "/>
</svg>
