<?xml version="1.0" encoding="iso-8859-1"?>
<!-- Generator: Adobe Illustrator 29.5.0, SVG Export Plug-In . SVG Version: 9.03 Build 0)  -->
<svg version="1.1" id="Ebene_1" xmlns="http://www.w3.org/2000/svg" xmlns:xlink="http://www.w3.org/1999/xlink" x="0px" y="0px"
	 viewBox="0 0 387.083 369.834" style="enable-background:new 0 0 387.083 369.834;" xml:space="preserve">
<g>
	<path d="M171.759,2.594l-11.844,1.198c-3.111,0.315-6.192,0.969-9.092,2.136c-14.316,5.76-16.734,18.321-25.356,26.74
		c-3.271,3.194-14.004,4.456-16.892,10.692l12.523-3.777c-5.998,7.864-7.885,25.496-12.683,32.455
		c-2.439,3.537-10.94,5.1-9.258,9.55c2.024-0.639,5.81-4.922,8.176-3.109l-4.974,36.144c-0.27,1.186-11.205,4.552-8.217,8.341
		l8.156-3.741c-1.827,7.377-1.447,15.617-1.311,23.244c0.215,12.135,4.034,11.255-7.463,20.616l8.764-3.749l5.124,38.057
		c-3.032,2-6.444,4.073-6.353,8.334l7.498-5.015c-0.454,14.329,12.073,29.155,1.267,41.364l7.508-5.005l11.063,32.225l-6.021,12.908
		l8.749-8.767c2.265,6.102,5.334,12.764,8.577,18.392c1.886,3.272,12.293,17.754,12.557,18.855c0.709,2.966-2.422,6.114-2.306,9.133
		c4.839,0.947,1.646-6.357,6.24-4.998c0.152,1.476,0.811,2.714,1.826,3.777c26.573,27.805,54.624,47.692,87.776,15.802
		c0,0,12.451-13.124,13.124-19.293l128.167-18.592c-103.759,19.854-120.171,49.45-144.589,58.89
		c-26.873,10.389-59.217,15.089-87.718,14.358c-43.747-1.122-77.277-13.307-105.132-49.315l7.511,0.012
		c-2.801-3.596-8.036-2.526-11.223-5.077c-2.297-1.839-8.404-12.704-10.301-16.029c-2.677-4.693-9.668-17.126-11.051-21.555
		c-1.309-4.192,5.175,0.86,6.244-1.223c-1.762-2.249-4.937-2.499-6.927-4.358c-3.2-2.989-18.827-51.877-16.883-53.945l5.003,0.626
		l-5.959-5.326l-5.34-43.561l6.282,1.856c-0.073-4.345-5.437-5.213-6.235-9.425c-2.403-12.688,1.651-31.305,1.238-44.483
		l7.498,5.015c0.102-4.261-5.773-5.469-6.292-9.469c-0.52-4.004,3.141-17.186,4.426-21.874c1.867-6.808,4.751-13.364,6.912-20.06
		l6.239,3.757l-4.483-7.576c0.343-2.176,13.569-22.361,15.776-24.422c3.326-3.106,3.988-0.998,7.515,0.652l-2.535-5.649
		C49.38,23.62,70.123,14.024,88.514,8.254C115.997-0.367,143.071-2.201,171.759,2.594z M129.883,347.397
		C61.914,295.621,39.979,189.834,51.07,108.733c4.15-30.343,13.379-61.017,33.055-84.805c0.823-0.994,3.304-2.495,1.253-3.763
		C71.62,33.316,61.663,50.972,54.97,68.748c-26.677,70.846-14.183,176.068,29.498,238.189
		C96.159,323.563,111.096,339.055,129.883,347.397z M163.736,348.65c-14.378-10.752-26.786-22.66-37.382-37.208
		C78.95,246.365,60.976,124.791,94.954,51.056c3.133-6.799,6.727-12.004,10.604-18.234c0.665-1.068,3.144-2.718,1.135-3.88
		c-3.588,3.553-6.669,7.674-9.445,11.87c-2.152,3.252-9.464,18.472-10.311,19.154c-1.136,0.915-5.781,1.393-8.078,2.585
		c-6.812,3.535-12.67,7.926-16.674,14.665l14.371-8.197c1.718,0.302,7.716-4.438,6.95-0.579c-0.716,3.613-7.736,27.911-8.942,29.934
		c-1.609,2.701-10.05,7.356-13.67,11.406c-2.444,2.733-4.17,5.823-6.233,8.813c1.359,2.075,2.775-0.41,3.724-1.341
		c4.803-4.713,8.326-8.229,15.062-10.578l-2.73,35.499c-5.739,5.705-12.758,10.038-16.057,17.797l16.285-9.406l1.265,35.743
		c-0.678,3.45-12.999,9.984-13.796,15.645c1.655,1.523,13.162-10.549,15.706-6.29l6.621,31.835
		c-4.364,5.083-9.674,10.166-11.03,17.097c3.893-2.434,6.414-6.724,10.621-8.825c1.204-0.601,0.981-2.079,2.53,0.048
		c0.413,7.471,10.294,23.96,10.39,29.698c0.053,3.176-8.399,11.298-5.988,16.695c3.159-1.769,5.176-6.9,7.407-9.225
		c0.998-1.04,0.836-1.158,2.598-0.808c0.17,8.199,13.514,22.242,14.843,28.525c0.789,3.73-6.385,11.596-4.787,16.615l9.375-10.03
		C129.386,323.806,144.422,340.059,163.736,348.65z M44.61,76.581l-7.313-11.68l13.582-23.427
		c-10.447,9.292-18.476,24.337-23.513,37.285C0.391,148.106,16.709,260.252,64.722,317.906
		c9.725,11.678,22.129,23.455,36.323,29.491l-18.796-16.932c-1.369-3.179,7.618-1.769,8.76-3.738
		c-2.962-4.394-12.17-0.023-14.459-1.753l-19.374-27.112c-1.698-4.218,10.583,0.258,11.261-3.098
		c-2.891-2.436-13.358-3.093-14.803-4.011c-1.874-1.191-17.884-39.356-16.521-41.143l11.266,1.886
		c-1.779-4.237-12.028-5.481-13.498-7.197c-4.376-5.105-6.964-35.216-10.296-42.987c3.395-3.323,12.44,5.58,13.769,4.4
		c-1.056-6.655-14.344-10.451-15.054-14.398c-2.017-11.216-0.125-23.791-2.493-35.076l2.496-1.314l10.048,7.532
		c-1.781-6.736-7.116-11.507-12.639-15.267l3.857-39.257l13.774,10.024c-1.574-6.652-6.946-12.296-12.557-15.778l8.818-31.867
		L44.61,76.581z"/>
	<path d="M220.161,49.317c4.843,8.056,8.344,16.849,10.397,26.021c1.078,4.814,2.111,10.223,2.298,13.949
		c0.165,3.293-0.134,2.536-1.399,2.333c-5.899-16.473-21.523-41.038-38.92-46.975c-41.367-14.117-53.606,57.912-55.119,85.237
		c-2.614,47.199,11.801,129.662,46.344,164.276c43.552,43.642,55.409,5.392,65.844-28.521c0.449-1.458,4.599-19.181,4.599-19.181
		c2.58,17.05,3.029,20.079,2.305,35.741l86.837,1.191l-92.263,20.082c0,0,0,0,0,0c-31.099,63.599-75.478,30.256-101.354-15.403
		c-32.487-57.327-45.05-146.196-30.518-210.245c5.065-22.323,18.278-58.398,43.409-64.272c4.906-1.147,17.972-0.355,22.346,1.749
		c0,0,5.973,2.524,11.694,7.235c6.793,5.595,11.268,10.041,18.004,18.508C216.066,42.803,218.097,45.882,220.161,49.317z"/>
</g>
</svg>
