<?xml version="1.0" encoding="iso-8859-1"?>
<!-- Generator: Adobe Illustrator 29.5.1, SVG Export Plug-In . SVG Version: 9.03 Build 0)  -->
<svg version="1.1" id="Ebene_1" xmlns="http://www.w3.org/2000/svg" xmlns:xlink="http://www.w3.org/1999/xlink" x="0px" y="0px"
	 viewBox="0 0 1038.652 250.591" style="enable-background:new 0 0 1038.652 250.591;" xml:space="preserve">
<g>
	<path style="fill:#FFFFFF;" d="M117.036,1.768l-8.071,0.816c-2.12,0.214-4.219,0.661-6.195,1.456
		c-9.755,3.925-11.403,12.484-17.278,18.22c-2.229,2.176-9.542,3.036-11.51,7.286l8.533-2.574
		c-4.087,5.359-5.373,17.373-8.642,22.115c-1.662,2.41-7.455,3.475-6.308,6.507c1.379-0.436,3.959-3.354,5.571-2.119l-3.389,24.628
		c-0.184,0.808-7.635,3.101-5.599,5.684l5.558-2.549c-1.245,5.027-0.986,10.642-0.894,15.838c0.147,8.269,2.749,7.669-5.086,14.047
		l5.972-2.554l3.492,25.932c-2.066,1.363-4.391,2.775-4.329,5.678l5.109-3.417c-0.309,9.763,8.226,19.866,0.863,28.185l5.116-3.411
		l7.538,21.958l-4.103,8.796l5.962-5.974c1.543,4.158,3.634,8.698,5.845,12.532c1.285,2.23,8.376,12.097,8.556,12.848
		c0.483,2.021-1.65,4.166-1.572,6.223c3.297,0.645,1.122-4.332,4.252-3.405c0.104,1.005,0.552,1.85,1.244,2.574
		c18.107,18.946,37.221,32.497,59.81,10.767c0,0,8.484-8.943,8.943-13.146l491.159-13.682
		c-62.499,5.438-440.094,38.029-502.612,43.388c-19.56,1.677-40.371,5.056-59.774,6.011c-30.974,1.525-52.39-7.543-71.37-32.078
		l5.118,0.008c-1.909-2.45-5.476-1.721-7.647-3.46c-1.565-1.253-5.726-8.656-7.019-10.922c-1.824-3.198-6.588-11.67-7.53-14.687
		c-0.892-2.857,3.527,0.586,4.255-0.833c-1.201-1.532-3.364-1.703-4.72-2.969c-2.181-2.037-12.829-35.349-11.504-36.758l3.409,0.427
		l-4.06-3.629L0.49,115.844l4.281,1.265c-0.05-2.96-3.705-3.552-4.248-6.422c-1.638-8.645,1.125-21.331,0.844-30.31l5.109,3.417
		c0.069-2.903-3.934-3.726-4.288-6.452c-0.354-2.728,2.14-11.711,3.016-14.905c1.272-4.639,3.238-9.106,4.71-13.669l4.251,2.56
		l-3.055-5.162c0.233-1.483,9.246-15.237,10.75-16.641c2.266-2.116,2.717-0.68,5.121,0.444l-1.727-3.849
		c8.395-10.024,22.529-16.563,35.06-20.495C79.04-0.25,97.488-1.5,117.036,1.768z M88.501,236.714
		c-46.314-35.28-61.26-107.362-53.702-162.624c2.828-20.675,9.116-41.577,22.523-57.786c0.56-0.678,2.252-1.7,0.854-2.564
		c-9.375,8.961-16.159,20.992-20.72,33.104c-18.177,48.274-9.664,119.972,20.1,162.301C65.522,220.474,75.7,231.03,88.501,236.714z
		 M111.569,237.569c-9.797-7.326-18.252-15.441-25.472-25.353C53.797,167.872,41.549,85.033,64.702,34.79
		c2.135-4.633,4.584-8.18,7.226-12.424c0.453-0.728,2.142-1.852,0.773-2.644c-2.445,2.421-4.544,5.229-6.436,8.088
		c-1.466,2.216-6.449,12.587-7.026,13.051c-0.774,0.623-3.939,0.949-5.505,1.762c-4.642,2.409-8.633,5.4-11.362,9.993l9.792-5.586
		c1.17,0.206,5.257-3.024,4.736-0.395c-0.488,2.462-5.272,19.018-6.093,20.397c-1.096,1.841-6.848,5.012-9.315,7.772
		c-1.665,1.863-2.842,3.968-4.247,6.005c0.926,1.414,1.891-0.279,2.538-0.914c3.273-3.212,5.673-5.607,10.263-7.208l-1.86,24.189
		c-3.91,3.887-8.693,6.84-10.941,12.127l11.097-6.409l0.862,24.355c-0.462,2.351-8.857,6.803-9.401,10.661
		c1.128,1.037,8.968-7.188,10.702-4.286l4.511,21.692c-2.973,3.463-6.592,6.927-7.516,11.65c2.653-1.659,4.371-4.582,7.237-6.013
		c0.821-0.41,0.669-1.416,1.724,0.033c0.281,5.091,7.014,16.326,7.08,20.236c0.036,2.164-5.723,7.699-4.08,11.376
		c2.152-1.205,3.527-4.702,5.047-6.286c0.68-0.708,0.57-0.789,1.77-0.55c0.116,5.587,9.208,15.156,10.114,19.437
		c0.538,2.542-4.351,7.902-3.262,11.321l6.388-6.834C88.163,220.64,98.408,231.714,111.569,237.569z M30.397,52.182l-4.983-7.958
		l9.255-15.963c-7.118,6.331-12.59,16.583-16.022,25.406C0.266,100.92,11.385,177.335,44.101,216.62
		c6.626,7.957,15.079,15.982,24.75,20.095l-12.808-11.537c-0.933-2.166,5.191-1.205,5.969-2.547
		c-2.018-2.994-8.293-0.016-9.852-1.194l-13.202-18.474c-1.157-2.874,7.211,0.176,7.673-2.111c-1.97-1.66-9.102-2.108-10.087-2.733
		c-1.277-0.811-12.186-26.817-11.257-28.034l7.676,1.285c-1.212-2.887-8.196-3.735-9.197-4.904
		c-2.982-3.478-4.745-23.996-7.016-29.291c2.313-2.265,8.476,3.803,9.382,2.998c-0.72-4.535-9.774-7.121-10.258-9.811
		c-1.375-7.642-0.085-16.211-1.699-23.901l1.7-0.895l6.846,5.132c-1.214-4.59-4.849-7.841-8.612-10.403l2.628-26.75l9.385,6.83
		c-1.072-4.532-4.733-8.378-8.556-10.751l6.009-21.714L30.397,52.182z"/>
	<path style="fill:#FFFFFF;" d="M150.017,33.604c3.3,5.489,5.685,11.481,7.085,17.731c0.734,3.28,1.438,6.966,1.566,9.505
		c0.113,2.244-0.091,1.728-0.953,1.59c-4.019-11.225-14.666-27.963-26.52-32.008c-28.188-9.619-36.527,39.461-37.558,58.08
		c-1.781,32.161,8.041,88.351,31.578,111.937c29.676,29.737,37.756,3.674,44.866-19.434c0.306-0.994,3.134-13.07,3.134-13.07
		c1.758,11.618,2.064,13.682,1.571,24.354l442.468,2.321l-446.165,12.174l0,0c-21.191,43.336-51.431,20.616-69.062-10.496
		C79.888,157.224,71.329,96.67,81.23,53.027c3.451-15.211,12.455-39.792,29.579-43.795c3.343-0.781,12.246-0.242,15.227,1.192
		c0,0,4.07,1.72,7.968,4.93c4.629,3.812,7.678,6.842,12.268,12.611C147.226,29.166,148.61,31.264,150.017,33.604z"/>
</g>
<g>
	<path style="fill:#FFFFFF;" d="M190.897,183.988v-78.722h21.76v7.2c6.881-8.801,14.081-9.28,22.081-9.28h2.24v23.681
		c-1.92-0.32-3.841-0.48-5.761-0.48c-11.52,0-17.12,4.641-17.12,16.48v41.121H190.897z"/>
	<path style="fill:#FFFFFF;" d="M292.018,183.988v-9.601c-4.961,8.001-12.32,11.681-22.881,11.681
		c-15.841,0-26.881-11.04-26.881-26.4v-54.401h23.201v49.281c0,8.8,4.159,12.8,12,12.8c10.08,0,13.44-6.72,13.44-19.36v-42.721
		h23.04v78.722h-21.919V183.988z"/>
	<path style="fill:#FFFFFF;" d="M323.215,95.826v-19.36h23.2v19.36H323.215z M323.215,183.988v-78.722h23.2v78.722H323.215z"/>
	<path style="fill:#FFFFFF;" d="M401.934,129.107c-0.64-6.4-3.84-10.24-12.801-10.24c-7.68,0-11.36,2.88-11.36,6.56
		c0,4.16,4.48,6.08,11.041,7.841c7.52,1.92,16.8,3.68,24.641,7.359c7.359,3.521,12.479,8.801,12.479,19.681
		c0,15.36-10.24,25.761-34.561,25.761c-24.641,0-38.081-10.721-38.561-27.36h23.681c0,6.24,5.28,10.72,15.04,10.72
		c6.561,0,11.84-2.08,11.84-7.36c0-4.16-3.359-5.6-10.399-7.359c-13.601-3.36-17.921-4.641-23.201-7.2
		c-10.56-5.28-14.08-12.801-14.08-20.961c0-12.8,8.8-23.36,33.921-23.36c23.04,0,32.961,8.96,34.081,25.921h-21.761L401.934,129.107
		L401.934,129.107z"/>
	<path style="fill:#FFFFFF;" d="M452.972,150.548c0.64,9.92,6.72,17.12,15.521,17.12c5.76,0,11.04-2.72,12.16-6.88h23.84
		c-4.8,16.16-17.92,25.28-34.88,25.28c-26.562,0-39.842-14.4-39.842-42.881c0-24.32,14.081-40.001,38.401-40.001
		c24.16,0,37.281,14.88,37.281,44.001v3.36h-52.481V150.548z M482.252,136.627c-0.64-10.4-6.4-15.04-14.4-15.04
		s-13.6,5.12-14.4,15.04H482.252z"/>
</g>
<g>
	<path style="fill:#FFFFFF;" d="M637.617,133.843c-5.6,30.2-26.8,50.199-57.999,50.199c-35.199,0-61.999-23.8-61.999-69.398
		c0-44.999,23.999-72.399,62.399-72.399c33.6,0,54.998,21.2,57.599,48h-30.999c-3.4-13.8-14-21.2-26.4-21.2
		c-21.6,0-31.199,16.6-31.199,43.8c0,27.6,9.199,44.199,29.8,44.199c15.6,0,24.199-8.4,27.8-23.2h30.998L637.617,133.843
		L637.617,133.843z"/>
	<path style="fill:#FFFFFF;" d="M639.617,140.081c0-24.96,15.681-41.44,40.961-41.44c24.961,0,40.481,16.32,40.481,41.44
		c0,24.961-15.681,41.441-40.481,41.441C654.817,181.522,639.617,164.562,639.617,140.081z M697.698,140.081
		c0-15.04-5.6-21.76-17.12-21.76s-17.12,6.72-17.12,21.76c0,15.041,5.6,22.081,17.12,22.081S697.698,155.122,697.698,140.081z"/>
	<path style="fill:#FFFFFF;" d="M777.057,179.442v-48.801c0-9.921-3.681-13.121-12-13.121c-9.121,0-13.761,4.641-13.761,14.4v47.521
		h-23.2v-78.722h22.08v9.92c4.48-8,12.16-12,23.681-12c15.36,0,26.561,9.76,26.561,25.12v55.682h-23.361V179.442z"/>
	<path style="fill:#FFFFFF;" d="M873.856,150.002c0,16.641-8.959,31.521-32.32,31.521c-23.68,0-32.48-14.561-32.48-31.681V79.44
		h22.721v21.28h42.08v16.32h-42.08v31.841c0,8.16,3.04,12.48,10.24,12.48c7.04,0,10.24-4.32,10.24-12.32v-21.44h21.6
		L873.856,150.002L873.856,150.002z"/>
	<path style="fill:#FFFFFF;" d="M881.853,179.442V100.72h21.761v7.2c6.88-8.801,14.08-9.28,22.08-9.28h2.24v23.681
		c-1.92-0.32-3.84-0.48-5.76-0.48c-11.521,0-17.121,4.641-17.121,16.48v41.121H881.853z"/>
	<path style="fill:#FFFFFF;" d="M926.973,140.081c0-24.96,15.68-41.44,40.961-41.44c24.96,0,40.48,16.32,40.48,41.44
		c0,24.961-15.681,41.441-40.48,41.441C942.173,181.522,926.973,164.562,926.973,140.081z M985.054,140.081
		c0-15.04-5.601-21.76-17.12-21.76c-11.521,0-17.121,6.72-17.121,21.76c0,15.041,5.601,22.081,17.121,22.081
		C979.453,162.162,985.054,155.122,985.054,140.081z"/>
	<path style="fill:#FFFFFF;" d="M1015.451,179.442V71.92h23.2v107.522H1015.451z"/>
</g>
</svg>
